<svg width="40" height="40" viewBox="0 0 40 40" fill="none" xmlns="http://www.w3.org/2000/svg">
<path d="M32.5766 29.9234C32.9288 30.2757 33.1267 30.7534 33.1267 31.2516C33.1267 31.7497 32.9288 32.2274 32.5766 32.5797C32.2243 32.9319 31.7466 33.1298 31.2484 33.1298C30.7503 33.1298 30.2725 32.9319 29.9203 32.5797L20 22.6562L10.0766 32.5766C9.72431 32.9288 9.24657 33.1267 8.74843 33.1267C8.25029 33.1267 7.77255 32.9288 7.42031 32.5766C7.06807 32.2243 6.87018 31.7466 6.87018 31.2484C6.87018 30.7503 7.06807 30.2726 7.42031 29.9203L17.3437 20L7.42343 10.0766C7.07119 9.72432 6.8733 9.24658 6.8733 8.74844C6.8733 8.25029 7.07119 7.77255 7.42343 7.42031C7.77567 7.06807 8.25341 6.87018 8.75156 6.87018C9.2497 6.87018 9.72744 7.06807 10.0797 7.42031L20 17.3437L29.9234 7.41875C30.2757 7.06651 30.7534 6.86862 31.2516 6.86862C31.7497 6.86862 32.2274 7.06651 32.5797 7.41875C32.9319 7.77099 33.1298 8.24873 33.1298 8.74687C33.1298 9.24502 32.9319 9.72276 32.5797 10.075L22.6562 20L32.5766 29.9234Z" fill="#F8F8F8"/>
</svg>
